<svg id="Layer_1" data-name="Layer 1" xmlns="http://www.w3.org/2000/svg" viewBox="0 0 500 500"><defs><style>.cls-1{fill:#ffcf8a;}.cls-2{fill:#f9b96b;}.cls-3{fill:#ffd72e;}.cls-4{fill:#ffbf0b;}.cls-5{fill:none;stroke:#000;stroke-linecap:round;stroke-linejoin:round;stroke-width:15px;}.cls-6{fill:#f36d21;}</style></defs><title>chicken</title><path class="cls-1" d="M434.34,307.49c0-27-5.8-60.67-16.21-95.61l-41.55,56.81-42.07-57.52-42.07,57.52-42.07-57.52L208.3,268.69l-42.07-57.52-42.07,57.52L82.08,211.17h0c-10.55,35.2-16.42,69.16-16.42,96.32a184.34,184.34,0,0,0,368.68,0Z"/><path class="cls-2" d="M418.13,211.88l-26.71,36.53c4.5,21.5,6.92,41.69,6.92,59.08,0,95.73-73,174.42-166.34,183.46q8.88.87,18,.88A184.34,184.34,0,0,0,434.34,307.49C434.34,280.51,428.54,246.82,418.13,211.88Z"/><path class="cls-3" d="M124.16,268.69l42.07-57.52,42.07,57.52,42.07-57.52,42.07,57.52,42.07-57.52,42.07,57.52,15.36-21c-5.53-57.11-30.73-211-141.63-211s-136,153.62-141.61,210.83Z"/><path class="cls-4" d="M250.31,36.73a111.1,111.1,0,0,0-18,1.46c91,14.91,116,142.34,122.74,201.07l21.53,29.43,15.36-21C386.41,190.58,361.21,36.73,250.31,36.73Z"/><path class="cls-5" d="M434.34,307.49c0-27-5.8-60.67-16.21-95.61l-41.55,56.81-42.07-57.52-42.07,57.52-42.07-57.52L208.3,268.69l-42.07-57.52-42.07,57.52L82.08,211.17h0c-10.55,35.2-16.42,69.16-16.42,96.32a184.34,184.34,0,0,0,368.68,0Z"/><polyline class="cls-5" points="272.62 8.17 250.31 36.73 228.01 8.17"/><path class="cls-5" d="M366.2,133.89C346,82.81,311,36.73,250.31,36.73s-95.7,46.08-115.88,97.16"/><path class="cls-5" d="M116.53,195.5a501.06,501.06,0,0,0-7.83,52.06l15.46,21.13,42.07-57.52,42.07,57.52,42.07-57.52,42.07,57.52,42.07-57.52,42.07,57.52,15.36-21a500.9,500.9,0,0,0-8-53.15"/><line class="cls-5" x1="219.63" y1="121.34" x2="194.76" y2="121.34"/><line class="cls-5" x1="278.37" y1="121.34" x2="303.24" y2="121.34"/><path class="cls-6" d="M250.32,140.22c14.17,0,22.31,12.9,22.31,12.9l-22.31,21.5L228,153.12S236.15,140.22,250.32,140.22Z"/><path class="cls-5" d="M250.32,140.22c14.17,0,22.31,12.9,22.31,12.9l-22.31,21.5L228,153.12S236.15,140.22,250.32,140.22Z"/><path class="cls-3" d="M151.46,186.36s-57.94,20.56-66.16,0,49.13-52.47,49.13-52.47"/><path class="cls-4" d="M349.17,186.36s57.94,20.56,66.16,0-49.13-52.47-49.13-52.47"/><path class="cls-5" d="M151.46,186.36s-57.94,20.56-66.16,0,49.13-52.47,49.13-52.47"/><path class="cls-5" d="M349.17,186.36s57.94,20.56,66.16,0-49.13-52.47-49.13-52.47"/></svg>